<?xml version="1.0" standalone="no"?>
<!DOCTYPE svg PUBLIC "-//W3C//DTD SVG 20010904//EN"
 "http://www.w3.org/TR/2001/REC-SVG-20010904/DTD/svg10.dtd">
<svg version="1.0" xmlns="http://www.w3.org/2000/svg"
 width="200.000000pt" height="200.000000pt" viewBox="0 0 200.000000 200.000000"
 preserveAspectRatio="xMidYMid meet">

<g transform="translate(0.000000,200.000000) scale(0.100000,-0.100000)"
fill="#000000" stroke="none">
<path d="M982 1598 c-139 -263 -241 -476 -229 -481 7 -3 30 -40 52 -82 l40
-76 -40 -74 c-22 -41 -44 -75 -49 -75 -5 -1 -29 35 -52 79 l-43 81 -24 -42
c-39 -70 -77 -140 -77 -144 0 -2 216 -4 480 -4 264 0 480 2 480 5 0 7 -80 156
-92 172 -6 8 -22 -13 -49 -65 -22 -42 -43 -80 -48 -85 -10 -10 -94 138 -89
156 6 22 82 157 89 157 3 0 14 -18 24 -40 10 -23 22 -43 26 -46 6 -3 -325 659
-336 674 -2 2 -30 -48 -63 -110z m107 -30 l44 -83 -43 -77 c-24 -43 -46 -78
-49 -78 -4 0 -25 36 -49 79 l-43 80 43 80 c24 44 45 81 48 81 3 0 25 -37 49
-82z m-98 -176 l41 -72 -86 0 c-47 0 -86 3 -86 6 0 15 76 144 83 141 5 -1 26
-35 48 -75z m193 7 c21 -38 36 -72 33 -75 -2 -3 -40 -4 -84 -2 l-80 3 40 73
c23 39 44 72 47 72 3 0 23 -32 44 -71z m-154 -93 c0 -7 -81 -156 -85 -156 -4
0 -85 147 -85 155 0 3 38 5 85 5 47 0 85 -2 85 -4z m190 -2 c0 -11 -82 -155
-86 -152 -5 6 -84 150 -84 154 0 2 38 4 85 4 47 0 85 -3 85 -6z m-336 -66 c58
-105 61 -98 -39 -98 l-86 0 42 80 c24 44 44 80 45 80 2 0 19 -28 38 -62z m393
-10 c21 -40 39 -76 41 -80 2 -5 -35 -8 -82 -8 -47 0 -86 3 -86 6 0 9 81 154
86 154 2 0 21 -33 41 -72z m-192 -8 c19 -38 35 -72 35 -75 0 -3 -36 -5 -80 -5
-44 0 -80 3 -80 6 0 13 75 144 82 144 4 0 24 -31 43 -70z m-155 -96 c0 -11
-72 -144 -79 -144 -3 0 -25 34 -48 75 l-42 75 85 0 c46 0 84 -3 84 -6z m190 0
c0 -12 -72 -144 -79 -144 -6 0 -81 133 -81 144 0 3 36 6 80 6 44 0 80 -3 80
-6z m167 -51 c-51 -92 -55 -98 -60 -93 -9 10 -77 137 -77 143 0 4 38 7 85 7
l85 0 -33 -57z m-291 -41 l39 -72 -40 -76 c-22 -41 -43 -77 -47 -80 -6 -4 -88
140 -88 154 0 19 83 163 90 155 4 -4 25 -41 46 -81z m190 0 l39 -73 -40 -75
c-22 -42 -43 -78 -47 -80 -9 -6 -83 134 -82 155 1 26 75 164 83 155 5 -5 26
-42 47 -82z m-483 -161 c20 -38 37 -72 37 -75 0 -3 -36 -6 -80 -6 -44 0 -80 3
-80 6 0 12 72 144 79 144 3 0 23 -31 44 -69z m191 0 c20 -38 36 -72 36 -75 0
-3 -36 -6 -80 -6 -44 0 -80 2 -80 5 0 11 75 145 81 145 4 0 23 -31 43 -69z
m189 0 c20 -37 37 -71 37 -75 0 -3 -36 -6 -80 -6 -44 0 -80 3 -80 6 0 10 75
144 80 144 3 0 22 -31 43 -69z m190 0 c20 -37 37 -71 37 -75 0 -3 -36 -6 -80
-6 -44 0 -80 3 -80 6 0 10 75 144 80 144 3 0 22 -31 43 -69z m200 -13 l37 -68
-85 0 c-47 0 -85 3 -85 6 0 5 38 75 67 123 17 27 19 26 66 -61z"/>
</g>
</svg>
