<?xml version="1.0" standalone="no"?>
<!DOCTYPE svg PUBLIC "-//W3C//DTD SVG 20010904//EN"
 "http://www.w3.org/TR/2001/REC-SVG-20010904/DTD/svg10.dtd">
<svg version="1.0" xmlns="http://www.w3.org/2000/svg"
 width="200.000000pt" height="200.000000pt" viewBox="0 0 200.000000 200.000000"
 preserveAspectRatio="xMidYMid meet">

<g transform="translate(0.000000,200.000000) scale(0.100000,-0.100000)"
fill="#000000" stroke="none">
<path d="M915 1208 c-11 -35 -35 -210 -30 -218 4 -6 33 -10 65 -10 51 0 61 3
79 26 25 31 26 53 7 79 -12 17 -12 22 5 44 24 30 24 46 -1 71 -23 23 -118 29
-125 8z m100 -38 c12 -20 -15 -50 -45 -50 -30 0 -36 12 -24 44 7 18 59 22 69
6z m-11 -106 c11 -29 -12 -54 -50 -54 -29 0 -35 3 -30 16 3 9 6 24 6 35 0 15
7 19 34 19 22 0 36 -6 40 -16z"/>
<path d="M1082 1138 c-7 -46 -15 -100 -18 -120 -6 -34 -4 -38 15 -38 15 0 21
6 21 23 0 36 11 67 24 67 7 0 22 -20 34 -45 15 -31 28 -45 42 -45 25 0 25 1
-1 52 -21 41 -21 41 -1 57 23 18 42 53 42 75 0 34 -37 56 -93 56 l-53 0 -12
-82z m116 21 c4 -23 -25 -49 -54 -49 -25 0 -31 20 -18 55 9 22 68 17 72 -6z"/>
<path d="M1256 1114 c-10 -58 -15 -112 -12 -120 9 -23 111 -19 136 6 22 22 27
79 10 96 -8 8 -6 15 5 24 8 7 15 27 15 46 0 41 -21 54 -88 54 l-49 0 -17 -106z
m114 48 c0 -25 -19 -42 -47 -42 -19 0 -23 5 -23 30 0 28 3 30 35 30 27 0 35
-4 35 -18z m-12 -105 c5 -26 -16 -47 -49 -47 -30 0 -37 17 -23 55 9 23 68 16
72 -8z"/>
<path d="M840 1200 c0 -5 7 -7 15 -4 8 4 15 8 15 10 0 2 -7 4 -15 4 -8 0 -15
-4 -15 -10z"/>
<path d="M774 1184 c1 -8 6 -17 11 -21 4 -4 5 -2 1 5 -4 6 -2 12 3 12 6 0 11
4 11 8 0 5 -6 9 -14 9 -7 0 -13 -6 -12 -13z"/>
<path d="M746 1181 c-3 -5 2 -15 12 -22 15 -12 16 -12 5 2 -7 9 -10 19 -6 22
3 4 4 7 0 7 -3 0 -8 -4 -11 -9z"/>
<path d="M600 1100 c-20 -116 -21 -115 88 -118 104 -3 107 -1 72 68 l-20 39
-37 -21 -37 -22 24 32 c28 38 21 50 -42 76 l-36 16 -12 -70z"/>
<path d="M735 1140 c3 -5 8 -10 11 -10 2 0 4 5 4 10 0 6 -5 10 -11 10 -5 0 -7
-4 -4 -10z"/>
<path d="M787 1133 c-3 -5 5 -8 18 -8 13 0 21 3 18 8 -2 4 -10 7 -18 7 -8 0
-16 -3 -18 -7z"/>
<path d="M810 1012 c0 -5 7 -9 15 -9 8 0 15 4 15 9 0 4 -7 8 -15 8 -8 0 -15
-4 -15 -8z"/>
</g>
</svg>
